<svg width="70" height="40" viewBox="0 0 70 40" fill="none" xmlns="http://www.w3.org/2000/svg">
<path d="M37.2544 1.61549C38.1796 0.653018 39.4361 0.112305 40.7445 0.112305C46.6311 0.112305 52.1786 0.112308 57.6417 0.112319C68.6295 0.112342 74.1317 13.9325 66.3622 22.0152L49.4382 39.6213C48.6613 40.4296 47.3328 39.8571 47.3328 38.714V23.2072L49.2886 21.1725C50.8425 19.556 49.742 16.7919 47.5444 16.7919H22.666L37.2544 1.61549Z" fill="#1DB079"/>
<path d="M32.7449 38.3842C31.8198 39.3467 30.5633 39.8874 29.2549 39.8874C23.3683 39.8874 17.8208 39.8874 12.3577 39.8874C1.36983 39.8873 -4.13236 26.0672 3.63721 17.9844L20.5612 0.378369C21.3381 -0.429908 22.6666 0.142547 22.6666 1.28562L22.6667 16.7923L20.7108 18.8271C19.1569 20.4437 20.2574 23.2077 22.455 23.2077L47.3335 23.2076L32.7449 38.3842Z" fill="#1DB079"/>
</svg>
