<svg width="444" height="60" viewBox="0 0 444 60" fill="none" xmlns="http://www.w3.org/2000/svg">
<path d="M37.2544 11.6155C38.1796 10.653 39.4361 10.1123 40.7445 10.1123C46.6311 10.1123 52.1786 10.1123 57.6417 10.1123C68.6295 10.1123 74.1317 23.9325 66.3622 32.0152L49.4382 49.6213C48.6613 50.4296 47.3328 49.8571 47.3328 48.714V33.2072L49.2886 31.1725C50.8425 29.556 49.742 26.7919 47.5444 26.7919H22.666L37.2544 11.6155Z" fill="#1DB079"/>
<path d="M32.7449 48.3842C31.8198 49.3467 30.5633 49.8874 29.2549 49.8874C23.3683 49.8874 17.8208 49.8874 12.3577 49.8874C1.36983 49.8873 -4.13236 36.0672 3.63721 27.9844L20.5612 10.3784C21.3381 9.57009 22.6666 10.1425 22.6666 11.2856L22.6667 26.7923L20.7108 28.8271C19.1569 30.4437 20.2574 33.2077 22.455 33.2077L47.3335 33.2076L32.7449 48.3842Z" fill="#1DB079"/>
<path d="M98.4027 48V19.1681H83.9627V13.344H118.619V19.1681H104.179V48H98.4027ZM122.315 48V13.344H154.131V19.1681H128.139V27.784H149.077V33.56H128.139V42.1759H154.131V48H122.315ZM157.895 48V13.344H164.49L177.486 28.8429L190.434 13.344H197.076V48H191.252V21.4304L177.486 37.8439L163.671 21.4785V48H157.895ZM202.55 48V13.3921H230.708C231.896 13.3921 232.971 13.697 233.933 14.3067C234.928 14.8843 235.714 15.6704 236.292 16.6652C236.902 17.6279 237.206 18.7028 237.206 19.8901V29.4205C237.206 30.5757 236.902 31.6507 236.292 32.6455C235.714 33.6402 234.928 34.4264 233.933 35.004C232.971 35.5816 231.896 35.8704 230.708 35.8704L208.326 35.9185V48H202.55ZM209.193 30.0463H230.516C230.74 30.0463 230.933 29.966 231.093 29.8056C231.286 29.6452 231.382 29.4366 231.382 29.1799V20.0345C231.382 19.8099 231.286 19.6174 231.093 19.4569C230.933 19.2644 230.74 19.1681 230.516 19.1681H209.193C208.968 19.1681 208.76 19.2644 208.567 19.4569C208.407 19.6174 208.326 19.8099 208.326 20.0345V29.1799C208.326 29.4366 208.407 29.6452 208.567 29.8056C208.76 29.966 208.968 30.0463 209.193 30.0463ZM247.026 48C245.839 48 244.748 47.7112 243.753 47.1336C242.759 46.556 241.972 45.7698 241.395 44.7751C240.817 43.7803 240.528 42.6893 240.528 41.502V19.842C240.528 18.6547 240.817 17.5637 241.395 16.5689C241.972 15.5742 242.759 14.788 243.753 14.2104C244.748 13.6328 245.839 13.344 247.026 13.344H268.686C269.874 13.344 270.949 13.6328 271.911 14.2104C272.906 14.788 273.692 15.5742 274.27 16.5689C274.88 17.5637 275.184 18.6547 275.184 19.842V41.502C275.184 42.6893 274.88 43.7803 274.27 44.7751C273.692 45.7698 272.906 46.556 271.911 47.1336C270.949 47.7112 269.874 48 268.686 48H247.026ZM247.171 42.1759H268.494C268.718 42.1759 268.911 42.0956 269.071 41.9352C269.264 41.7748 269.36 41.5662 269.36 41.3095V20.0345C269.36 19.7778 269.264 19.5692 269.071 19.4088C268.911 19.2484 268.718 19.1681 268.494 19.1681H247.171C246.946 19.1681 246.738 19.2484 246.545 19.4088C246.385 19.5692 246.304 19.7778 246.304 20.0345V41.3095C246.304 41.5662 246.385 41.7748 246.545 41.9352C246.738 42.0956 246.946 42.1759 247.171 42.1759ZM308.499 48L297.861 35.2928H305.418L314.997 46.6523V48H308.499ZM280.485 48V13.3921H308.643C309.83 13.3921 310.905 13.697 311.868 14.3067C312.863 14.8843 313.649 15.6704 314.227 16.6652C314.836 17.6279 315.141 18.7028 315.141 19.8901V29.4205C315.141 30.5757 314.836 31.6507 314.227 32.6455C313.649 33.6402 312.863 34.4264 311.868 35.004C310.905 35.5816 309.83 35.8704 308.643 35.8704L286.261 35.9185V48H280.485ZM287.127 30.0463H308.451C308.675 30.0463 308.868 29.966 309.028 29.8056C309.221 29.6452 309.317 29.4366 309.317 29.1799V20.0345C309.317 19.8099 309.221 19.6174 309.028 19.4569C308.868 19.2644 308.675 19.1681 308.451 19.1681H287.127C286.903 19.1681 286.694 19.2644 286.502 19.4569C286.341 19.6174 286.261 19.8099 286.261 20.0345V29.1799C286.261 29.4366 286.341 29.6452 286.502 29.8056C286.694 29.966 286.903 30.0463 287.127 30.0463ZM319.819 48V13.344H325.547V48H319.819ZM330.258 48V41.4539L356.779 19.1681H330.258V13.344H364.914V19.8901L338.392 42.1759H364.914V48H330.258ZM370.126 48V13.344H401.942V19.1681H375.95V27.784H396.888V33.56H375.95V42.1759H401.942V48H370.126ZM434.896 48L424.258 35.2928H431.815L441.394 46.6523V48H434.896ZM406.882 48V13.3921H435.04C436.227 13.3921 437.302 13.697 438.265 14.3067C439.26 14.8843 440.046 15.6704 440.624 16.6652C441.233 17.6279 441.538 18.7028 441.538 19.8901V29.4205C441.538 30.5757 441.233 31.6507 440.624 32.6455C440.046 33.6402 439.26 34.4264 438.265 35.004C437.302 35.5816 436.227 35.8704 435.04 35.8704L412.658 35.9185V48H406.882ZM413.524 30.0463H434.848C435.072 30.0463 435.265 29.966 435.425 29.8056C435.618 29.6452 435.714 29.4366 435.714 29.1799V20.0345C435.714 19.8099 435.618 19.6174 435.425 19.4569C435.265 19.2644 435.072 19.1681 434.848 19.1681H413.524C413.3 19.1681 413.091 19.2644 412.899 19.4569C412.738 19.6174 412.658 19.8099 412.658 20.0345V29.1799C412.658 29.4366 412.738 29.6452 412.899 29.8056C413.091 29.966 413.3 30.0463 413.524 30.0463Z" fill="white"/>
</svg>
